<svg width="754" height="311" viewBox="0 0 754 311" fill="none" xmlns="http://www.w3.org/2000/svg">
<g clip-path="url(#clip0)">
<rect x="56" y="106" width="232" height="152" rx="11" fill="#C9B2A0" stroke="#181616" stroke-width="8"/>
<path d="M86 87.0495C86 79.2883 93.8209 73.9678 101.04 76.8181L165.04 102.088C169.24 103.746 172 107.803 172 112.319V244.363C172 251.834 164.712 257.132 157.605 254.826L93.6051 234.06C89.0707 232.589 86 228.364 86 223.597V87.0495Z" fill="#D9C9BD" stroke="#181616" stroke-width="8"/>
<path d="M259 87.0495C259 79.2883 251.179 73.9678 243.96 76.8181L179.96 102.088C175.76 103.746 173 107.803 173 112.319V244.363C173 251.834 180.288 257.132 187.395 254.826L251.395 234.06C255.929 232.589 259 228.364 259 223.597V87.0495Z" fill="#D9C9BD" stroke="#181616" stroke-width="8"/>
<path d="M227 69.0107C227 59.9447 216.649 54.7709 209.397 60.2126L177.397 84.2268C174.629 86.3044 173 89.5637 173 93.025V243.72C173 252.543 182.865 257.776 190.17 252.827L222.17 231.149C225.191 229.102 227 225.691 227 222.042V69.0107Z" fill="#EAE1DA" stroke="#181616" stroke-width="8"/>
<path d="M118 69.0107C118 59.9447 128.351 54.7709 135.603 60.2126L167.603 84.2268C170.371 86.3044 172 89.5637 172 93.025V243.72C172 252.543 162.135 257.776 154.83 252.827L122.83 231.149C119.809 229.102 118 225.691 118 222.042V69.0107Z" fill="#EAE1DA" stroke="#181616" stroke-width="8"/>
<path d="M360.3 203V199C362.567 198.933 364.367 198.733 365.7 198.4C367.1 198.067 368.167 197.5 368.9 196.7C369.7 195.9 370.233 194.767 370.5 193.3C370.767 191.833 370.9 189.933 370.9 187.6V141.4C370.9 139.067 370.8 137.2 370.6 135.8C370.4 134.333 369.967 133.2 369.3 132.4C368.7 131.533 367.833 130.967 366.7 130.7C365.633 130.367 364.2 130.133 362.4 130V126H394.5C404.567 126 412.3 127.633 417.7 130.9C423.167 134.1 425.9 138.7 425.9 144.7C425.9 152.633 420.2 158.233 408.8 161.5V161.9C412.467 161.9 415.767 162.433 418.7 163.5C421.7 164.5 424.233 165.933 426.3 167.8C428.367 169.667 429.967 171.867 431.1 174.4C432.233 176.933 432.8 179.7 432.8 182.7C432.8 186.1 431.967 189.067 430.3 191.6C428.7 194.133 426.367 196.267 423.3 198C417.367 201.333 409.2 203 398.8 203H360.3ZM399.5 196.9C410.233 196.9 415.6 192.067 415.6 182.4C415.6 176.467 413.667 172.133 409.8 169.4C407.8 168 405.2 167 402 166.4C398.867 165.8 395 165.5 390.4 165.5H385.6V185.5C385.6 189.633 386.667 192.567 388.8 194.3C390.933 196.033 394.5 196.9 399.5 196.9ZM391.5 159.5C394.5 159.5 397.1 159.233 399.3 158.7C401.5 158.1 403.367 157.267 404.9 156.2C408.1 154 409.7 150.567 409.7 145.9C409.7 141.033 408.5 137.533 406.1 135.4C403.7 133.2 399.833 132.1 394.5 132.1H387.4C386.2 132.1 385.6 132.667 385.6 133.8V159.5H391.5ZM469.488 149C473.488 149 477.254 149.7 480.788 151.1C484.388 152.433 487.521 154.3 490.188 156.7C492.921 159.1 495.054 161.967 496.588 165.3C498.188 168.567 498.988 172.167 498.988 176.1C498.988 180.167 498.188 183.9 496.588 187.3C495.054 190.7 492.921 193.633 490.188 196.1C487.521 198.567 484.388 200.5 480.788 201.9C477.254 203.3 473.488 204 469.488 204C465.554 204 461.821 203.333 458.288 202C454.754 200.6 451.654 198.667 448.988 196.2C446.321 193.733 444.221 190.8 442.688 187.4C441.154 183.933 440.388 180.167 440.388 176.1C440.388 172.167 441.154 168.533 442.688 165.2C444.221 161.867 446.321 159 448.988 156.6C451.654 154.2 454.754 152.333 458.288 151C461.821 149.667 465.554 149 469.488 149ZM469.488 154.8C467.488 154.8 465.654 155.333 463.988 156.4C462.321 157.4 460.888 158.833 459.688 160.7C458.554 162.567 457.654 164.833 456.988 167.5C456.388 170.1 456.088 173 456.088 176.2C456.088 179.533 456.388 182.533 456.988 185.2C457.654 187.867 458.554 190.133 459.688 192C460.888 193.867 462.288 195.333 463.888 196.4C465.554 197.4 467.421 197.9 469.488 197.9C471.554 197.9 473.421 197.4 475.088 196.4C476.821 195.333 478.288 193.867 479.488 192C480.688 190.067 481.621 187.767 482.288 185.1C482.954 182.433 483.288 179.467 483.288 176.2C483.288 173 482.954 170.1 482.288 167.5C481.621 164.9 480.688 162.667 479.488 160.8C478.288 158.867 476.821 157.4 475.088 156.4C473.421 155.333 471.554 154.8 469.488 154.8ZM535.503 149C539.503 149 543.27 149.7 546.803 151.1C550.403 152.433 553.536 154.3 556.203 156.7C558.936 159.1 561.07 161.967 562.603 165.3C564.203 168.567 565.003 172.167 565.003 176.1C565.003 180.167 564.203 183.9 562.603 187.3C561.07 190.7 558.936 193.633 556.203 196.1C553.536 198.567 550.403 200.5 546.803 201.9C543.27 203.3 539.503 204 535.503 204C531.57 204 527.836 203.333 524.303 202C520.77 200.6 517.67 198.667 515.003 196.2C512.336 193.733 510.236 190.8 508.703 187.4C507.17 183.933 506.403 180.167 506.403 176.1C506.403 172.167 507.17 168.533 508.703 165.2C510.236 161.867 512.336 159 515.003 156.6C517.67 154.2 520.77 152.333 524.303 151C527.836 149.667 531.57 149 535.503 149ZM535.503 154.8C533.503 154.8 531.67 155.333 530.003 156.4C528.336 157.4 526.903 158.833 525.703 160.7C524.57 162.567 523.67 164.833 523.003 167.5C522.403 170.1 522.103 173 522.103 176.2C522.103 179.533 522.403 182.533 523.003 185.2C523.67 187.867 524.57 190.133 525.703 192C526.903 193.867 528.303 195.333 529.903 196.4C531.57 197.4 533.436 197.9 535.503 197.9C537.57 197.9 539.436 197.4 541.103 196.4C542.836 195.333 544.303 193.867 545.503 192C546.703 190.067 547.636 187.767 548.303 185.1C548.97 182.433 549.303 179.467 549.303 176.2C549.303 173 548.97 170.1 548.303 167.5C547.636 164.9 546.703 162.667 545.503 160.8C544.303 158.867 542.836 157.4 541.103 156.4C539.436 155.333 537.57 154.8 535.503 154.8ZM604.519 199C606.652 199 608.152 198.933 609.019 198.8C609.885 198.6 610.319 198.233 610.319 197.7C610.319 197.3 609.852 196.333 608.919 194.8C608.052 193.2 606.919 191.367 605.519 189.3L597.919 177.9L592.919 182.7V186.6C592.919 189.2 593.019 191.3 593.219 192.9C593.419 194.5 593.752 195.767 594.219 196.7C594.752 197.567 595.452 198.167 596.319 198.5C597.252 198.833 598.419 199 599.819 199V203H570.319V199C572.185 198.933 573.685 198.733 574.819 198.4C575.952 198.067 576.852 197.5 577.519 196.7C578.185 195.833 578.619 194.667 578.819 193.2C579.085 191.667 579.219 189.7 579.219 187.3V144.9C579.219 140.833 579.152 137.633 579.019 135.3C578.885 132.967 578.519 131.233 577.919 130.1C577.385 128.9 576.519 128.167 575.319 127.9C574.185 127.633 572.619 127.5 570.619 127.5V123.8L592.919 120V175.6L602.519 166.5C605.985 163.233 608.452 160.8 609.919 159.2C611.385 157.533 612.119 156.333 612.119 155.6C612.119 155 611.485 154.6 610.219 154.4C609.019 154.133 606.752 154 603.419 154V150H630.719V154C628.185 154 625.952 154.433 624.019 155.3C622.085 156.167 619.985 157.667 617.719 159.8L608.019 168.9L625.319 193.4C626.852 195.533 628.352 197 629.819 197.8C631.285 198.6 633.219 199 635.619 199V203H604.519V199ZM643.625 203H640.525V184.8H644.725C645.858 189.6 647.492 193.1 649.625 195.3C651.758 197.5 654.525 198.6 657.925 198.6C660.392 198.6 662.292 198.1 663.625 197.1C665.025 196.033 665.725 194.6 665.725 192.8C665.725 190.933 664.892 189.133 663.225 187.4C661.558 185.6 658.858 183.7 655.125 181.7C650.058 178.967 646.425 176.267 644.225 173.6C642.025 170.867 640.925 167.8 640.925 164.4C640.925 162.2 641.325 160.167 642.125 158.3C642.992 156.367 644.125 154.7 645.525 153.3C646.992 151.9 648.725 150.833 650.725 150.1C652.725 149.3 654.892 148.9 657.225 148.9C659.292 148.9 661.325 149.2 663.325 149.8C665.392 150.4 667.192 151.233 668.725 152.3L670.525 149.9H673.125V165H669.225C667.692 161.2 666.092 158.467 664.425 156.8C662.825 155.133 660.858 154.3 658.525 154.3C656.658 154.3 655.158 154.8 654.025 155.8C652.958 156.8 652.425 158.133 652.425 159.8C652.425 161.667 653.225 163.433 654.825 165.1C656.492 166.767 659.225 168.6 663.025 170.6C665.692 172.067 667.992 173.5 669.925 174.9C671.858 176.3 673.425 177.733 674.625 179.2C675.825 180.6 676.692 182.1 677.225 183.7C677.825 185.233 678.125 186.9 678.125 188.7C678.125 191.033 677.692 193.133 676.825 195C675.958 196.867 674.725 198.467 673.125 199.8C671.525 201.133 669.592 202.167 667.325 202.9C665.125 203.633 662.658 204 659.925 204C657.058 204 654.392 203.633 651.925 202.9C649.458 202.1 647.425 200.967 645.825 199.5L643.625 203Z" fill="black"/>
</g>
<defs>
<clipPath id="clip0">
<rect width="754" height="311" fill="white"/>
</clipPath>
</defs>
</svg>
